<?xml version="1.0" encoding="utf-8"?>
<!-- Generator: Adobe Illustrator 19.0.0, SVG Export Plug-In . SVG Version: 6.00 Build 0)  -->
<svg version="1.1" id="Layer_1" xmlns="http://www.w3.org/2000/svg" xmlns:xlink="http://www.w3.org/1999/xlink" x="0px" y="0px"
	 viewBox="-229 380 152 33" style="enable-background:new -229 380 152 33;" xml:space="preserve">
<style type="text/css">
	.st0{fill:#FFFFFF;}
	.st1{fill:#E42929;}
</style>
<path class="st0" d="M-222.8,401v12h-6.2v-31.8h11.8c6.3,0,10.4,4.2,10.4,9.9c0,5.8-4.2,9.9-10.4,9.9L-222.8,401L-222.8,401z
	 M-217.9,395.7c3.1,0,5-1.8,5-4.5c0-2.8-1.9-4.6-5-4.6h-4.9v9.1H-217.9z"/>
<path class="st0" d="M-202.8,380c2,0,3.7,1.7,3.7,3.7c0,2-1.6,3.6-3.7,3.6c-2,0-3.7-1.7-3.7-3.6C-206.4,381.7-204.8,380-202.8,380z
	 M-205.7,413v-22.1h5.9V413H-205.7z"/>
<path class="st1" d="M-193.2,391.5l7.9,10.8l-7.9,10.7h-5.7l7.8-10.6l-7.8-10.9H-193.2z"/>
<path class="st1" d="M-181.2,402l7.8-10.5h-7.4l-4.1,5.4L-181.2,402z"/>
<path class="st1" d="M-184.9,407.6l4,5.4h7.4l-7.6-10.6L-184.9,407.6z"/>
<path class="st0" d="M-168.1,405.1c0.1,1.8,1.4,3.4,4,3.4c2,0,2.9-1,2.9-2.2c0-1-0.7-1.8-2.4-2.1l-2.9-0.7c-4.2-0.9-6.2-3.5-6.2-6.6
	c0-3.9,3.5-7.2,8.2-7.2c6.3,0,8.3,4,8.6,6.4l-4.9,1.1c-0.2-1.3-1.1-3-3.6-3c-1.6,0-2.8,0.9-2.8,2.2c0,1.1,0.8,1.8,2,2l3.1,0.7
	c4.3,0.9,6.5,3.5,6.5,6.8c0,3.6-2.8,7.3-8.5,7.3c-6.6,0-8.9-4.3-9.2-6.8L-168.1,405.1z"/>
<path class="st0" d="M-145.3,390.6h4.4v5.3h-4.4v9.2c0,1.9,0.9,2.6,2.6,2.6c0.7,0,1.5-0.1,1.8-0.2v4.9c-0.5,0.2-1.6,0.5-3.3,0.5
	c-4.3,0-7-2.6-7-6.8v-10.3h-4v-5.3h1.1c2.3,0,3.4-1.5,3.4-3.5V384h5.4L-145.3,390.6L-145.3,390.6z"/>
<path class="st0" d="M-134,399.7l5.4-0.8c1.3-0.2,1.7-0.8,1.7-1.6c0-1.6-1.2-2.9-3.7-2.9c-2.6,0-4,1.7-4.2,3.6l-5.3-1.1
	c0.4-3.4,3.5-7.3,9.4-7.3c7,0,9.5,3.9,9.5,8.4v10.9c0,1.2,0.1,2.7,0.3,3.5h-5.4c-0.1-0.6-0.2-1.8-0.2-2.6c-1.1,1.8-3.2,3.3-6.5,3.3
	c-4.7,0-7.6-3.2-7.6-6.6C-140.6,402.4-137.7,400.2-134,399.7z M-127,403.4v-1l-5,0.8c-1.5,0.2-2.7,1.1-2.7,2.8
	c0,1.3,0.9,2.6,2.9,2.6C-129.3,408.6-127,407.3-127,403.4z"/>
<path class="st0" d="M-114.7,401.3c0,4,2.6,6.2,5.6,6.2s4.5-2,5.1-3.7l5.2,1.8c-1,3.7-4.4,7.4-10.3,7.4c-6.5,0-11.6-4.9-11.6-11.7
	c0-6.8,5-11.7,11.4-11.7c6,0,9.4,3.7,10.3,7.4l-5.3,1.8c-0.5-1.8-1.9-3.7-4.9-3.7C-112.2,395.1-114.7,397.3-114.7,401.3z"/>
<path class="st0" d="M-86,400.2l9,12.8h-7.3l-5.8-8.4l-2.5,2.6v5.8h-5.9v-32.5h5.9v18.6l7.6-8.2h7.8L-86,400.2z"/>
</svg>
